<svg width="16" height="17" viewBox="0 0 16 17" fill="none" xmlns="http://www.w3.org/2000/svg">
<path d="M7.97436 17V15.359M7.97436 15.359C10.4359 16.1795 14.9487 16.1795 13.3077 13.718C14.9487 12.8974 14.9487 11.2564 14.9487 9.61538C14.1282 9.61538 13.3077 9.61538 12.4872 9.61538C13.3077 7.97436 13.3077 7.15385 13.3077 5.51284C12.6496 5.51284 11.6667 5.51284 10.8462 5.51284C10.8462 3.87179 10.6 2.6 7.97436 1C5.8 2.6 5.10256 3.87179 5.08879 5.51284C5.08879 5.51284 3.87179 5.51284 2.64103 5.51284C2.64103 7.15385 2.64103 7.97436 3.46154 9.61538C2.23077 9.61538 1.82051 9.61538 1 9.61538C1 11.2564 1 12.8974 2.74524 13.718C1 16.1795 6.31956 16.1795 7.97436 15.359Z" stroke="white"/>
</svg>
