<svg width="20" height="14" viewBox="0 0 20 14" fill="none" xmlns="http://www.w3.org/2000/svg">
<path d="M1 7L0.531083 6.82646L0.466856 7L0.531083 7.17354L1 7ZM19 7L19.4689 7.17354L19.5331 7L19.4689 6.82646L19 7ZM0.531083 7.17354C1.89968 10.8715 5.63462 13.5 10 13.5V12.5C6.03318 12.5 2.68551 10.1137 1.46892 6.82646L0.531083 7.17354ZM1.46892 7.17354C2.68551 3.88629 6.03318 1.5 10 1.5V0.5C5.63462 0.5 1.89968 3.12848 0.531083 6.82646L1.46892 7.17354ZM10 13.5C14.3654 13.5 18.1003 10.8715 19.4689 7.17354L18.5311 6.82646C17.3145 10.1137 13.9668 12.5 10 12.5V13.5ZM10 1.5C13.9668 1.5 17.3145 3.88629 18.5311 7.17354L19.4689 6.82646C18.1003 3.12848 14.3654 0.5 10 0.5V1.5ZM13.5 7C13.5 8.933 11.933 10.5 10 10.5V11.5C12.4853 11.5 14.5 9.48528 14.5 7H13.5ZM10 10.5C8.067 10.5 6.5 8.933 6.5 7H5.5C5.5 9.48528 7.51472 11.5 10 11.5V10.5ZM6.5 7C6.5 5.067 8.067 3.5 10 3.5V2.5C7.51472 2.5 5.5 4.51472 5.5 7H6.5ZM10 3.5C11.933 3.5 13.5 5.067 13.5 7H14.5C14.5 4.51472 12.4853 2.5 10 2.5V3.5Z" fill="black"/>
</svg>
